<svg data-v-423bf9ae="" xmlns="http://www.w3.org/2000/svg" viewBox="0 0 363 90" class="iconLeft"><!----><!----><defs data-v-423bf9ae=""><linearGradient data-v-423bf9ae="" gradientTransform="rotate(25)" id="5e67bfc7-dafd-4292-9cbf-998bdc20254a" x1="0%" y1="0%" x2="100%" y2="0%"><stop data-v-423bf9ae="" offset="0%" style="stop-color: rgb(255, 255, 255); stop-opacity: 1;"></stop><stop data-v-423bf9ae="" offset="100%" style="stop-color: rgb(255, 252, 252); stop-opacity: 1;"></stop></linearGradient></defs><g data-v-423bf9ae="" id="89174012-608c-4f4b-9c66-2450171ea37d" fill="url(#5e67bfc7-dafd-4292-9cbf-998bdc20254a)" transform="matrix(6.0072717953585135,0,0,6.0072717953585135,101.7427068688936,-7.347051012184515)"><path d="M4.05 13.52L0.70 13.52L0.70 5.38Q0.71 3.92 2.04 3.72L2.04 3.72L3.96 3.72Q4.68 3.72 5.24 4.00Q5.81 4.28 6.20 4.77L6.20 4.77Q6.51 5.15 6.64 5.62Q6.78 6.09 6.72 6.55Q6.66 7.01 6.42 7.43Q6.17 7.85 5.73 8.15L5.73 8.15Q6.30 8.37 6.69 8.76Q7.07 9.16 7.27 9.63Q7.46 10.11 7.47 10.63Q7.48 11.14 7.30 11.63Q7.13 12.11 6.78 12.52Q6.43 12.94 5.91 13.19L5.91 13.19Q5.24 13.52 4.05 13.52L4.05 13.52ZM2.55 5.52L2.55 5.52L2.55 11.76Q2.77 11.76 3.05 11.77Q3.33 11.77 3.63 11.77Q3.92 11.77 4.20 11.75Q4.48 11.73 4.69 11.66L4.69 11.66Q5.22 11.52 5.45 11.18Q5.67 10.84 5.62 10.46Q5.57 10.08 5.28 9.74Q4.98 9.41 4.48 9.30L4.48 9.30Q4.33 9.27 4.10 9.25Q3.88 9.23 3.63 9.25Q3.39 9.27 3.18 9.34Q2.97 9.41 2.87 9.58L2.87 9.58Q2.70 9.18 2.67 8.86Q2.63 8.53 2.77 8.26Q2.90 7.99 3.23 7.81Q3.56 7.63 4.12 7.52L4.12 7.52Q4.47 7.45 4.70 7.17Q4.93 6.89 4.93 6.51L4.93 6.51Q4.93 6.10 4.66 5.87Q4.38 5.63 4.03 5.56L4.03 5.56Q3.88 5.53 3.68 5.52Q3.47 5.50 3.27 5.50Q3.07 5.50 2.87 5.51Q2.67 5.52 2.55 5.52ZM8.88 6.29L10.71 6.29L10.71 9.76Q10.71 10.01 10.72 10.30Q10.72 10.58 10.77 10.86Q10.82 11.13 10.94 11.37Q11.06 11.61 11.30 11.77L11.30 11.77Q11.45 11.89 11.66 11.94Q11.86 12.00 12.07 12.00Q12.28 12.00 12.47 11.94Q12.67 11.89 12.84 11.77L12.84 11.77Q13.08 11.62 13.20 11.39Q13.31 11.16 13.36 10.89Q13.41 10.63 13.41 10.35Q13.41 10.07 13.41 9.81L13.41 9.81L13.41 7.73Q13.40 6.97 13.90 6.60Q14.41 6.23 15.22 6.26L15.22 6.26L15.22 9.34Q15.23 10.29 15.16 10.93Q15.08 11.56 14.92 11.93L14.92 11.93Q14.52 12.87 13.78 13.27Q13.03 13.68 12.04 13.68L12.04 13.68Q10.96 13.68 10.19 13.20Q9.42 12.73 9.09 11.68L9.09 11.68Q8.99 11.35 8.93 10.80Q8.88 10.25 8.88 9.59L8.88 9.59L8.88 6.29ZM16.63 13.52L16.63 6.24L18.20 6.24L18.20 7.17Q18.44 6.68 18.81 6.39Q19.18 6.10 19.63 6.08L19.63 6.08Q20.22 6.03 20.58 6.29Q20.94 6.55 21.09 6.92Q21.24 7.29 21.17 7.68Q21.10 8.06 20.79 8.29L20.79 8.29Q20.66 7.94 20.31 7.83Q19.95 7.73 19.56 7.86Q19.17 7.99 18.85 8.36Q18.54 8.72 18.48 9.31L18.48 9.31Q18.45 9.65 18.45 9.98Q18.45 10.30 18.45 10.58L18.45 10.58L18.45 13.52L16.63 13.52ZM27.41 13.52L27.41 12.73Q26.88 13.24 26.26 13.48Q25.63 13.72 25.00 13.70Q24.37 13.68 23.78 13.41Q23.18 13.15 22.73 12.65Q22.27 12.15 22.00 11.46Q21.73 10.77 21.73 9.88L21.73 9.88Q21.73 9.04 22.02 8.33Q22.32 7.62 22.81 7.11Q23.31 6.61 23.95 6.34Q24.58 6.06 25.27 6.09L25.27 6.09Q25.94 6.12 26.35 6.39Q26.75 6.66 26.94 7.03Q27.13 7.39 27.14 7.76Q27.15 8.13 27.02 8.36L27.02 8.36Q26.78 8.01 26.35 7.89Q25.91 7.77 25.51 7.77L25.51 7.77Q24.86 7.77 24.43 8.09Q24.00 8.40 23.77 8.88Q23.55 9.35 23.54 9.91Q23.53 10.46 23.75 10.93Q23.97 11.41 24.41 11.73Q24.85 12.04 25.51 12.04L25.51 12.04Q26.07 12.04 26.43 11.79Q26.80 11.54 27.01 11.14Q27.23 10.74 27.32 10.24Q27.41 9.74 27.41 9.25L27.41 9.25L27.41 7.04L27.41 6.27L29.23 6.27L29.23 13.52L27.41 13.52ZM30.63 13.52L30.63 6.24L32.20 6.24L32.20 7.17Q32.44 6.68 32.81 6.39Q33.18 6.10 33.63 6.08L33.63 6.08Q34.22 6.03 34.58 6.29Q34.94 6.55 35.09 6.92Q35.24 7.29 35.17 7.68Q35.10 8.06 34.79 8.29L34.79 8.29Q34.66 7.94 34.31 7.83Q33.95 7.73 33.56 7.86Q33.17 7.99 32.85 8.36Q32.54 8.72 32.48 9.31L32.48 9.31Q32.45 9.65 32.45 9.98Q32.45 10.30 32.45 10.58L32.45 10.58L32.45 13.52L30.63 13.52ZM39.52 6.10L39.52 6.10Q40.63 6.10 41.49 6.64Q42.35 7.17 42.84 7.99Q43.33 8.82 43.37 9.83Q43.40 10.84 42.85 11.80L42.85 11.80Q42.39 12.60 41.65 13.08Q40.91 13.55 40.07 13.67Q39.23 13.79 38.38 13.53Q37.53 13.27 36.86 12.60L36.86 12.60Q36.11 11.83 35.85 10.82Q35.60 9.81 35.90 8.81L35.90 8.81Q36.02 8.40 36.31 8.13Q36.60 7.87 36.96 7.74Q37.32 7.62 37.72 7.63Q38.11 7.64 38.44 7.79Q38.78 7.94 39.01 8.21Q39.24 8.48 39.28 8.88L39.28 8.88Q39.07 8.72 38.78 8.71Q38.49 8.71 38.21 8.84Q37.94 8.97 37.75 9.25Q37.56 9.52 37.56 9.93L37.56 9.93Q37.56 10.63 37.86 11.09Q38.15 11.55 38.59 11.78Q39.03 12.01 39.54 12.01Q40.05 12.01 40.49 11.77Q40.94 11.54 41.23 11.07Q41.52 10.60 41.52 9.90L41.52 9.90Q41.52 9.35 41.33 8.93Q41.13 8.51 40.80 8.24Q40.47 7.97 40.04 7.86Q39.61 7.76 39.12 7.85L39.12 7.85Q38.91 7.60 38.60 7.46Q38.30 7.31 37.95 7.26Q37.60 7.21 37.25 7.27Q36.90 7.34 36.60 7.52L36.60 7.52Q37.16 6.85 37.90 6.48Q38.64 6.10 39.52 6.10Z"></path></g><defs data-v-423bf9ae=""><linearGradient data-v-423bf9ae="" gradientTransform="rotate(25)" id="b22f7075-b850-427f-96d6-83426724f14c" x1="0%" y1="0%" x2="100%" y2="0%"><stop data-v-423bf9ae="" offset="0%" style="stop-color: rgb(204, 62, 252); stop-opacity: 1;"></stop><stop data-v-423bf9ae="" offset="100%" style="stop-color: rgb(37, 111, 255); stop-opacity: 1;"></stop></linearGradient></defs><g data-v-423bf9ae="" id="e3d494ea-33a4-4223-89e3-02301fe2c1a0" transform="matrix(1.0899370271911406,0,0,1.0899370271911406,4.344209364378045,-1.1064623799877111)" stroke="none" fill="url(#b22f7075-b850-427f-96d6-83426724f14c)"><path d="M44.873 2.446c-13.465-5.813-21.469 9.813-14.12 19.163 1.423-9.672 7.955-14.234 14.12-19.163zm-30.257 21.18c-3.472 1.906-4.914 5.843-9.077 7.059 1.598 7.577-4.641 14.246 2.017 8.068v-7.059c6.161-3.368 10.435-13.613 20.171-10.086-3.051-4.271-1.041-13.372-2.017-17.146-5.202 1.443-10.108 6.544-7.061 13.111-5.634-3.014-17.388 1.233-16.137 5.043 2.297-1.9 11.027-1.656 12.104 1.01zm-.671 15.127s2.877-4.601 7.313-6.975c.824-.441-7.985 0-7.985 0l.672 6.975zm19.834-17.145c5.575-7.2 14.416-11.136 27.232-11.094-7.621-14.817-29.049 1.197-27.232 11.094zm33.284 15.129c-3.7-10.131-18.396-13.015-32.274-11.095 27.511 6.801-4.269 35.25 0 49.421 2.032 6.749 15.094 11.283 26.222 7.06-23.024-4.493 1.187-45.024-15.128-53.454 20.691 5.66-2.267 41.805 13.11 44.377-4.249-2.781-3.641-5.699-3.049-7.016 5.313-9.719 15.724-16.682 11.119-29.293zm-31.266-14.12c18.77-3.389 33.964 4.848 36.309 21.18 14.315-27.808-23.072-37.841-36.309-21.18zm-1.008 6.051c8.168 10.069 2.536 26.342-14.122 23.196 1.136 2.898.205 7.865 2.019 10.086 1.627-6.438 6.64-9.498 16.137-8.069 4.172-6.782 5.151-23.399-4.034-25.213zm-17.204 40.12a4.33 4.33 0 00-.446.399c-.604.459-1.363.763-2.371.815a2.762 2.762 0 01-.234-.05c-.535-.438-3.771-3.168-3.961-5.483.149-.22.389-.449.781-.614l.111-.034c2.338-.229 3.041 1.177 5.169 1.154-.603-1.795 2.955-4.188 0-5.041-5.859 6.5-18.003-1.564-12.103-10.086-3.632-.27-4.86 1.864-8.068 2.017 6.749 9.724 14.194 18.75 25.213 24.207-1.135-2.9-.203-7.866-2.016-10.086-.697.928-1.257 1.995-2.075 2.802z"></path></g><!----></svg>