<svg data-v-fde0c5aa="" xmlns="http://www.w3.org/2000/svg" viewBox="0 0 300 300" class="iconLeft"><!----><defs data-v-fde0c5aa=""><!----></defs><rect data-v-fde0c5aa="" fill="#FFFFFF" x="0" y="0" width="300px" height="300px" class="logo-background-square"></rect><defs data-v-fde0c5aa=""><linearGradient data-v-fde0c5aa="" gradientTransform="rotate(25)" id="a1ea4a65-d68f-4e86-ab98-ecfe0efb8a49" x1="0%" y1="0%" x2="100%" y2="0%"><stop data-v-fde0c5aa="" offset="0%" stop-color="#000000" stop-opacity="1"></stop><stop data-v-fde0c5aa="" offset="100%" stop-color="#000000" stop-opacity="1"></stop></linearGradient></defs><g data-v-fde0c5aa="" id="ef80613a-3b5b-4518-a4f8-bc4f88b40c79" fill="url(#a1ea4a65-d68f-4e86-ab98-ecfe0efb8a49)" transform="matrix(2.548644251405402,0,0,2.548644251405402,98.72088296025946,124.55178741708048)"><path d="M0.70 13.52L0.70 5.21Q0.70 4.91 0.79 4.65Q0.88 4.38 1.06 4.17Q1.25 3.96 1.52 3.84Q1.79 3.72 2.16 3.72L2.16 3.72L2.46 3.72L6.69 10.18L6.69 3.72L8.54 3.72L8.54 13.52L6.76 13.52L2.55 7.10L2.55 13.52L0.70 13.52ZM14.88 10.72L14.88 10.72Q14.13 10.92 13.50 10.86Q12.88 10.81 12.48 10.56Q12.08 10.32 11.95 9.91Q11.82 9.49 12.03 8.97L12.03 8.97Q12.46 9.34 13.03 9.37Q13.61 9.41 14.14 9.35L14.14 9.35Q14.59 9.31 14.82 9.16Q15.05 9.00 15.11 8.80Q15.16 8.60 15.06 8.37Q14.97 8.15 14.75 7.97Q14.53 7.78 14.22 7.67Q13.90 7.56 13.52 7.57L13.52 7.57Q13.12 7.60 12.75 7.77Q12.39 7.94 12.11 8.23Q11.83 8.53 11.66 8.92Q11.49 9.31 11.48 9.79L11.48 9.79Q11.47 10.18 11.57 10.56Q11.68 10.93 11.89 11.25Q12.10 11.56 12.39 11.78Q12.68 12.00 13.06 12.05L13.06 12.05Q13.59 12.15 14.15 11.98Q14.71 11.82 15.15 11.37L15.15 11.37L16.62 12.08Q16.04 12.94 15.26 13.31Q14.48 13.68 13.47 13.68L13.47 13.68Q12.53 13.68 11.82 13.35Q11.12 13.02 10.65 12.47Q10.18 11.93 9.95 11.24Q9.72 10.54 9.73 9.82Q9.74 9.10 10.01 8.41Q10.28 7.71 10.78 7.18L10.78 7.18Q11.34 6.58 12.09 6.33Q12.84 6.08 13.62 6.08L13.62 6.08Q14.49 6.08 15.12 6.37Q15.75 6.66 16.14 7.12Q16.53 7.57 16.66 8.13Q16.79 8.68 16.64 9.20Q16.49 9.72 16.06 10.13Q15.62 10.54 14.88 10.72ZM20.47 9.72L17.98 6.29L20.09 6.29L21.52 8.26L22.48 6.93Q22.71 6.61 22.99 6.43Q23.28 6.26 23.61 6.20Q23.94 6.13 24.30 6.16Q24.65 6.19 25.03 6.29L25.03 6.29L22.57 9.69L25.34 13.52L23.23 13.52L21.50 11.16L19.80 13.52L17.71 13.52L20.47 9.72ZM30.04 6.10L30.04 6.10Q31.15 6.10 32.01 6.64Q32.87 7.17 33.36 7.99Q33.85 8.82 33.89 9.83Q33.92 10.84 33.38 11.80L33.38 11.80Q32.91 12.60 32.17 13.08Q31.43 13.55 30.59 13.67Q29.75 13.79 28.90 13.53Q28.06 13.27 27.38 12.60L27.38 12.60Q26.63 11.83 26.38 10.82Q26.12 9.81 26.42 8.81L26.42 8.81Q26.54 8.40 26.83 8.13Q27.12 7.87 27.48 7.74Q27.85 7.62 28.24 7.63Q28.63 7.64 28.97 7.79Q29.30 7.94 29.53 8.21Q29.76 8.48 29.81 8.88L29.81 8.88Q29.60 8.72 29.30 8.71Q29.01 8.71 28.73 8.84Q28.46 8.97 28.27 9.25Q28.08 9.52 28.08 9.93L28.08 9.93Q28.08 10.63 28.38 11.09Q28.67 11.55 29.11 11.78Q29.55 12.01 30.06 12.01Q30.58 12.01 31.02 11.77Q31.46 11.54 31.75 11.07Q32.05 10.60 32.05 9.90L32.05 9.90Q32.05 9.35 31.85 8.93Q31.65 8.51 31.32 8.24Q31.00 7.97 30.56 7.86Q30.13 7.76 29.64 7.85L29.64 7.85Q29.43 7.60 29.13 7.46Q28.83 7.31 28.48 7.26Q28.13 7.21 27.78 7.27Q27.43 7.34 27.12 7.52L27.12 7.52Q27.68 6.85 28.42 6.48Q29.16 6.10 30.04 6.10ZM35.77 6.33L35.77 5.15Q35.77 4.76 35.92 4.49Q36.06 4.21 36.31 4.05Q36.55 3.88 36.88 3.80Q37.20 3.72 37.53 3.72L37.53 3.72L37.53 6.33L39.16 6.33Q39.16 6.61 39.11 6.87Q39.06 7.14 38.92 7.36Q38.78 7.57 38.54 7.71Q38.30 7.84 37.93 7.84L37.93 7.84L37.53 7.84L37.53 11.80Q37.53 12.03 37.70 12.12Q37.87 12.21 38.09 12.20Q38.32 12.19 38.54 12.10Q38.77 12.00 38.86 11.83L38.86 11.83Q39.05 12.29 38.88 12.65Q38.72 13.01 38.38 13.22Q38.04 13.44 37.58 13.50Q37.13 13.57 36.73 13.43Q36.33 13.30 36.05 12.96Q35.77 12.61 35.77 12.03L35.77 12.03L35.77 7.84L34.87 7.84L34.87 6.33L35.77 6.33ZM42.85 16.24L42.85 16.24Q42.17 16.24 41.59 16.06Q41.01 15.88 40.63 15.52Q40.25 15.16 40.12 14.62Q39.98 14.07 40.19 13.36L40.19 13.36Q40.36 13.66 40.64 13.90Q40.91 14.13 41.24 14.28Q41.58 14.43 41.94 14.51Q42.31 14.59 42.66 14.57L42.66 14.57Q43.67 14.53 44.20 14.05Q44.73 13.57 44.73 12.54L44.73 12.54Q44.63 12.81 44.39 13.01Q44.16 13.20 43.86 13.34Q43.57 13.47 43.26 13.54Q42.95 13.61 42.70 13.62L42.70 13.62Q42.17 13.65 41.65 13.48Q41.13 13.31 40.71 12.88L40.71 12.88Q40.08 12.24 40.08 11.00L40.08 11.00L40.08 6.26L41.86 6.26Q41.86 6.50 41.85 6.90Q41.85 7.29 41.85 7.78Q41.85 8.26 41.85 8.77Q41.85 9.28 41.86 9.74Q41.87 10.21 41.90 10.56Q41.93 10.92 41.97 11.09L41.97 11.09Q42.08 11.54 42.39 11.76Q42.70 11.98 43.06 11.98L43.06 11.98Q43.30 11.98 43.51 11.91Q43.72 11.83 43.88 11.69Q44.04 11.55 44.14 11.38Q44.24 11.20 44.24 10.99L44.24 10.99Q44.59 11.09 44.73 11.48L44.73 11.48L44.73 6.26L46.54 6.26L46.54 12.64Q46.54 14.29 45.61 15.27Q44.67 16.24 42.85 16.24ZM49.74 6.29L49.74 7.07Q50.26 6.55 50.88 6.31Q51.51 6.08 52.14 6.10Q52.77 6.13 53.35 6.40Q53.94 6.66 54.39 7.15Q54.84 7.64 55.11 8.34Q55.38 9.03 55.38 9.90L55.38 9.90Q55.38 10.74 55.09 11.44Q54.80 12.14 54.31 12.64Q53.82 13.15 53.18 13.42Q52.54 13.69 51.87 13.66L51.87 13.66Q51.17 13.64 50.76 13.36Q50.36 13.09 50.18 12.73Q49.99 12.38 49.99 12.01Q49.99 11.63 50.12 11.41L50.12 11.41Q50.25 11.58 50.42 11.70Q50.60 11.82 50.80 11.88Q51.00 11.94 51.22 11.97Q51.44 12.00 51.63 12.00L51.63 12.00Q52.28 12.00 52.71 11.68Q53.14 11.37 53.36 10.90Q53.58 10.43 53.58 9.88Q53.58 9.32 53.37 8.86Q53.16 8.39 52.72 8.07Q52.29 7.76 51.63 7.76L51.63 7.76Q51.09 7.76 50.72 8.01Q50.36 8.26 50.14 8.66Q49.92 9.06 49.83 9.55Q49.74 10.04 49.74 10.53L49.74 10.53L49.74 16.25L47.94 16.25L47.94 7.74Q47.94 7.38 48.08 7.10Q48.23 6.82 48.48 6.63Q48.73 6.44 49.06 6.36Q49.38 6.27 49.74 6.29L49.74 6.29ZM61.45 10.72L61.45 10.72Q60.69 10.92 60.07 10.86Q59.44 10.81 59.05 10.56Q58.65 10.32 58.51 9.91Q58.38 9.49 58.59 8.97L58.59 8.97Q59.02 9.34 59.60 9.37Q60.17 9.41 60.70 9.35L60.70 9.35Q61.15 9.31 61.38 9.16Q61.61 9.00 61.67 8.80Q61.73 8.60 61.63 8.37Q61.53 8.15 61.31 7.97Q61.10 7.78 60.78 7.67Q60.47 7.56 60.09 7.57L60.09 7.57Q59.68 7.60 59.32 7.77Q58.95 7.94 58.67 8.23Q58.39 8.53 58.23 8.92Q58.06 9.31 58.04 9.79L58.04 9.79Q58.03 10.18 58.14 10.56Q58.24 10.93 58.45 11.25Q58.66 11.56 58.95 11.78Q59.25 12.00 59.63 12.05L59.63 12.05Q60.16 12.15 60.72 11.98Q61.28 11.82 61.71 11.37L61.71 11.37L63.18 12.08Q62.61 12.94 61.82 13.31Q61.04 13.68 60.03 13.68L60.03 13.68Q59.09 13.68 58.39 13.35Q57.68 13.02 57.21 12.47Q56.74 11.93 56.51 11.24Q56.28 10.54 56.29 9.82Q56.31 9.10 56.57 8.41Q56.84 7.71 57.34 7.18L57.34 7.18Q57.90 6.58 58.65 6.33Q59.40 6.08 60.19 6.08L60.19 6.08Q61.05 6.08 61.68 6.37Q62.31 6.66 62.71 7.12Q63.10 7.57 63.22 8.13Q63.35 8.68 63.20 9.20Q63.06 9.72 62.62 10.13Q62.19 10.54 61.45 10.72Z"></path></g><defs data-v-fde0c5aa=""><linearGradient data-v-fde0c5aa="" gradientTransform="rotate(25)" id="e6656340-59ee-4181-bac8-69704b818c17" x1="0%" y1="0%" x2="100%" y2="0%"><stop data-v-fde0c5aa="" offset="0%" stop-color="#CC3EFC" stop-opacity="1"></stop><stop data-v-fde0c5aa="" offset="100%" stop-color="#256FFF" stop-opacity="1"></stop></linearGradient></defs><g data-v-fde0c5aa="" id="68734202-7dbb-4333-bb1d-c8b261c0b2ad" stroke="none" fill="url(#e6656340-59ee-4181-bac8-69704b818c17)" transform="matrix(0.10112962352911724,0,0,0.10112962352911724,37.8634374481464,124.09488737294366)"><path d="M469.511 377.625v-64.219c12.265-3.121 21.359-14.244 21.359-27.45 0-15.64-12.722-28.362-28.358-28.362-7.938 0-15.124 3.285-20.274 8.563l-27.856-16.081-27.83-16.026a28.298 28.298 0 001.068-7.69c0-13.206-9.097-24.328-21.358-27.449v-64.22c12.265-3.125 21.358-14.262 21.358-27.485 0-15.619-12.722-28.325-28.358-28.325-7.944 0-15.135 3.281-20.291 8.553l-27.842-16.073L283.3 55.335a28.278 28.278 0 001.067-7.688c0-15.617-12.724-28.323-28.358-28.323-15.646 0-28.376 12.706-28.376 28.323 0 2.665.377 5.241 1.068 7.688l-27.836 16.03-27.835 16.069c-5.156-5.272-12.346-8.553-20.292-8.553-15.636 0-28.357 12.707-28.357 28.325 0 13.223 9.095 24.36 21.357 27.485v64.22c-12.262 3.122-21.357 14.243-21.357 27.449 0 2.665.377 5.242 1.068 7.689l-27.839 16.03-27.848 16.078c-5.153-5.277-12.337-8.563-20.277-8.563-15.637 0-28.358 12.725-28.358 28.362 0 13.205 9.095 24.328 21.357 27.45v64.219c-12.262 3.126-21.357 14.264-21.357 27.486 0 15.617 12.721 28.32 28.358 28.32 7.943 0 15.129-3.28 20.282-8.556l27.85 16.078 27.831 16.026a28.249 28.249 0 00-1.067 7.687c0 15.618 12.721 28.325 28.357 28.325 15.647 0 28.377-12.707 28.377-28.325 0-2.665-.378-5.242-1.069-7.688l55.669-32.101c5.156 5.271 12.346 8.553 20.292 8.553 7.94 0 15.125-3.278 20.277-8.551L328.478 455a28.188 28.188 0 00-1.059 7.647c0 15.639 12.722 28.359 28.358 28.359 15.636 0 28.355-12.723 28.355-28.358 0-1.385-.101-2.749-.294-4.095l30.544-17.604 27.845-16.075c5.153 5.273 12.341 8.556 20.281 8.556 15.639 0 28.358-12.704 28.358-28.321.004-13.22-9.093-24.359-21.355-27.484zm-21.287-93.02c.009-.07.015-.144.021-.213.781-7.187 6.879-12.8 14.267-12.8 7.917 0 14.358 6.443 14.358 14.362 0 7.898-6.441 14.324-14.358 14.324-7.916 0-14.354-6.426-14.354-14.324-.002-.453.024-.902.066-1.349zm-74.606-58.245c0 4.438-2.024 8.41-5.195 11.046l-.084.068c-.33.27-.672.527-1.026.768-.014.009-.025.02-.039.029a15.24 15.24 0 01-1.034.629c-.111.062-.226.121-.337.18-.271.141-.544.273-.822.397-.104.046-.205.097-.313.141a13.646 13.646 0 01-1.478.516c-.314.092-.633.176-.955.247-.078.017-.154.039-.231.055a14.343 14.343 0 01-1.521.218c-.438.04-.875.067-1.32.067a14.426 14.426 0 01-1.602-.095 14.55 14.55 0 01-1.246-.19c-.07-.014-.139-.034-.208-.049a14.826 14.826 0 01-1.387-.376c-.367-.12-.729-.25-1.083-.397-.085-.035-.166-.077-.25-.113a13.589 13.589 0 01-.901-.435l-.283-.151a14.408 14.408 0 01-2.165-1.469l-.018-.014a14.424 14.424 0 01-4.554-6.725c-.021-.065-.038-.13-.061-.196a14.671 14.671 0 01-.301-1.167c-.009-.041-.021-.081-.028-.122a13.476 13.476 0 01-.189-1.247c-.014-.105-.021-.211-.031-.317a14.6 14.6 0 01-.065-1.295v-.002c0-7.897 6.449-14.323 14.376-14.323 7.91-.002 14.351 6.424 14.351 14.322zm-28.669-120.431a13.525 13.525 0 01.216-1.529c.022-.111.052-.221.077-.331.063-.292.141-.58.224-.865a12.833 12.833 0 01.527-1.499c.036-.087.079-.172.117-.259.138-.31.281-.614.439-.912.045-.083.088-.167.134-.25 2.454-4.409 7.171-7.403 12.577-7.403 7.917 0 14.358 6.426 14.358 14.325 0 7.919-6.441 14.362-14.358 14.362-7.927 0-14.376-6.443-14.376-14.362 0-.431.027-.855.065-1.277zm-88.942-72.605c7.917 0 14.358 6.425 14.358 14.323 0 4.429-2.018 8.394-5.18 11.031l-.123.101c-.313.253-.633.494-.965.722l-.094.066a13.894 13.894 0 01-1.383.813c-.247.129-.5.25-.756.364-.143.063-.279.128-.424.187-.314.13-.639.247-.967.354-.151.051-.309.097-.463.142a14.37 14.37 0 01-.886.229c-.099.021-.194.049-.293.069-.396.08-.8.139-1.206.185-.107.013-.216.023-.322.033-.431.039-.863.066-1.302.066-.438 0-.869-.027-1.296-.065-.113-.011-.225-.021-.337-.034a14.556 14.556 0 01-1.153-.176c-.14-.028-.277-.063-.415-.096a14.992 14.992 0 01-1.321-.367c-.212-.071-.421-.15-.629-.23a14.746 14.746 0 01-1.373-.611 14.134 14.134 0 01-.557-.298 15.43 15.43 0 01-2.189-1.522 14.453 14.453 0 01-1.797-1.805l-.042-.051a14.28 14.28 0 01-3.268-9.104c.007-7.9 6.456-14.326 14.383-14.326zm-87.643 97.543a28.435 28.435 0 001.932-1.402c.54-.426 1.067-.866 1.574-1.33l.104-.1c.491-.453.964-.925 1.422-1.412l.2-.209a27.908 27.908 0 001.552-1.837 28.17 28.17 0 001.197-1.65c.044-.066.085-.134.129-.201.363-.553.708-1.119 1.032-1.697.037-.066.077-.131.114-.197a28.265 28.265 0 001.082-2.192c.275-.622.53-1.253.761-1.896.036-.1.068-.202.103-.302.221-.64.423-1.289.599-1.949.013-.048.028-.095.04-.143.177-.679.323-1.371.45-2.069.024-.132.049-.264.071-.396.114-.685.205-1.377.269-2.077.012-.127.02-.254.029-.382.057-.733.095-1.472.095-2.22 0-.597-.025-1.188-.062-1.776-.009-.141-.021-.281-.032-.421a27.42 27.42 0 00-.156-1.498c-.012-.09-.021-.18-.034-.27a28.084 28.084 0 00-.759-3.625c-.012-.023-.016-.048-.023-.072l27.803-16.052 27.852-16.039c.073.074.15.143.223.216l.115.112c.271.268.545.532.827.788.152.139.31.272.465.408.173.15.343.303.52.449a28.245 28.245 0 0018.149 6.581 28.182 28.182 0 0015.94-4.919c.143-.097.279-.2.421-.299.217-.154.437-.306.647-.465.32-.241.637-.491.946-.745.026-.022.056-.042.08-.064a28.422 28.422 0 002.252-2.058l27.838 16.031 27.813 16.055-.02.072a28.234 28.234 0 00-.76 3.626c-.013.09-.022.18-.034.27a30.617 30.617 0 00-.248 3.695c0 .748.038 1.486.095 2.22.013.127.02.255.029.382.064.7.154 1.393.271 2.077.021.132.048.264.069.396.127.698.272 1.39.449 2.07l.041.143c.175.659.377 1.307.598 1.947.035.102.067.204.104.305a27.078 27.078 0 00.925 2.257c.286.621.589 1.233.917 1.829.038.069.079.136.118.205a27.72 27.72 0 001.025 1.686c.045.069.088.14.134.209a28.74 28.74 0 001.432 1.952c.42.525.855 1.036 1.313 1.53.065.074.139.145.208.218.452.482.922.95 1.406 1.399.039.036.075.074.114.109a29.01 29.01 0 001.565 1.323c.101.079.198.158.301.236.53.408 1.074.798 1.634 1.168l.295.189a28.63 28.63 0 001.785 1.069l.021.011c.61.333 1.241.638 1.882.927a28.013 28.013 0 002.225.895c.124.044.249.084.374.126.661.223 1.331.429 2.013.604.013.003.021.007.032.01v64.212c-.015.004-.026.009-.043.013a27.6 27.6 0 00-1.98.594 28.56 28.56 0 00-2.266.868c-.126.055-.249.112-.373.168-.628.284-1.247.583-1.85.91l-.07.04c-.589.322-1.161.669-1.725 1.031-.109.071-.222.139-.329.211a28.54 28.54 0 00-1.607 1.148l-.331.259c-.525.417-1.044.847-1.54 1.299-.05.045-.097.094-.146.14-.472.436-.927.889-1.367 1.356-.078.082-.157.162-.233.245-.447.486-.879.99-1.291 1.506-.09.11-.177.222-.264.333-.41.527-.805 1.065-1.177 1.62-.053.078-.101.158-.152.236a28.275 28.275 0 00-1.002 1.645c-.043.078-.09.153-.133.232a27.481 27.481 0 00-1.081 2.191 30.048 30.048 0 00-.754 1.875c-.038.106-.072.215-.109.322-.218.631-.417 1.27-.591 1.919l-.046.16a28.073 28.073 0 00-.447 2.058c-.022.134-.05.268-.07.403a29.904 29.904 0 00-.271 2.069c-.012.128-.019.257-.028.385a27.923 27.923 0 00-.096 2.213v.001a26.707 26.707 0 00.097 2.228c.035.478.087.951.146 1.422.016.122.029.245.047.366.085.602.188 1.197.311 1.786l.006.024c.118.562.257 1.116.407 1.665.019.067.029.136.05.203l-27.813 16.023-48.125 27.794-48.15-27.798-27.805-16.02c.019-.066.031-.134.049-.2.312-1.135.555-2.297.724-3.483.017-.116.029-.233.044-.349a33.74 33.74 0 00.183-1.885c.036-.587.061-1.178.061-1.775v-.001c0-.746-.038-1.482-.095-2.213-.01-.128-.018-.257-.029-.385a28.175 28.175 0 00-.268-2.069c-.022-.136-.048-.27-.073-.405a28.046 28.046 0 00-.447-2.057c-.014-.054-.031-.106-.045-.16-.174-.65-.373-1.29-.591-1.921-.037-.106-.07-.213-.108-.319a27.652 27.652 0 00-.926-2.256 28.145 28.145 0 00-.91-1.813c-.042-.076-.087-.148-.129-.224a29.029 29.029 0 00-1.009-1.657c-.049-.076-.096-.153-.146-.228a28.704 28.704 0 00-1.182-1.627c-.085-.109-.169-.217-.256-.325a28.344 28.344 0 00-1.298-1.513c-.074-.08-.151-.157-.226-.236a28.305 28.305 0 00-1.381-1.369c-.046-.042-.09-.087-.136-.13a28.427 28.427 0 00-1.549-1.306c-.106-.084-.212-.169-.32-.251a28.33 28.33 0 00-1.616-1.153c-.106-.07-.214-.137-.321-.206a28.886 28.886 0 00-1.738-1.039c-.021-.011-.04-.024-.06-.035a28.497 28.497 0 00-1.856-.913c-.122-.055-.243-.112-.366-.166a28.37 28.37 0 00-1.864-.732c-.134-.047-.269-.091-.403-.137a28.227 28.227 0 00-1.986-.594l-.042-.013v-64.212c.011-.002.021-.007.031-.009a28.58 28.58 0 002.017-.604c.123-.042.247-.082.369-.125a28.707 28.707 0 001.893-.745c.111-.048.221-.1.331-.149.641-.29 1.273-.595 1.888-.93l.01-.006a28.282 28.282 0 001.798-1.077c.095-.062.191-.121.286-.184zm-29.984-23.661c0-7.899 6.44-14.325 14.357-14.325 5.414 0 10.135 3 12.587 7.417l.114.213c.168.315.323.637.467.965.032.073.068.144.099.217a13.81 13.81 0 01.525 1.498c.086.293.164.591.231.892.023.104.052.208.073.313.078.389.136.784.182 1.184.013.116.024.232.035.348.038.422.065.847.065 1.279 0 .99-.101 1.957-.292 2.891-1.343 6.539-7.148 11.471-14.084 11.471-7.919-.001-14.359-6.444-14.359-14.363zm14.357 104.83c7.927 0 14.376 6.426 14.377 14.323v.002c0 .437-.027.867-.066 1.293-.009.107-.02.214-.031.321-.047.419-.108.834-.19 1.241-.009.046-.022.091-.032.137-.083.389-.182.771-.296 1.148-.021.069-.041.139-.063.208a14.397 14.397 0 01-4.546 6.715l-.03.024a14.36 14.36 0 01-2.152 1.46c-.098.054-.198.106-.297.158a14.8 14.8 0 01-.879.424c-.09.04-.178.084-.268.122-.351.146-.71.275-1.075.394-.134.044-.27.084-.406.125-.321.094-.646.179-.977.251-.074.016-.146.037-.22.052a14.019 14.019 0 01-1.527.218c-.436.04-.875.067-1.322.067a14.405 14.405 0 01-1.603-.095 14.39 14.39 0 01-1.239-.19c-.078-.016-.153-.038-.23-.054a14.584 14.584 0 01-.957-.247c-.142-.042-.283-.083-.423-.129a14.52 14.52 0 01-1.053-.386c-.107-.045-.21-.097-.316-.144a14.912 14.912 0 01-2.187-1.204l-.048-.034a14.298 14.298 0 01-1.019-.763l-.086-.07c-3.171-2.637-5.194-6.608-5.194-11.045-.002-7.896 6.438-14.322 14.355-14.322zm-117.61 73.92c0-7.919 6.441-14.362 14.358-14.362 7.375 0 13.463 5.594 14.263 12.762a14.329 14.329 0 01.092 1.547l.002.057c0 3.949-1.61 7.529-4.209 10.124a14.328 14.328 0 01-10.147 4.2c-7.918-.003-14.359-6.429-14.359-14.328zm28.712 119.21c-.001.416-.026.827-.063 1.234-.01.105-.02.215-.032.322-.048.426-.109.848-.193 1.262l-.01.041c-.092.441-.205.879-.337 1.306l-.018.06c-1.827 5.813-7.277 10.043-13.701 10.043-7.917 0-14.358-6.425-14.358-14.322 0-7.918 6.441-14.36 14.357-14.36s14.357 6.442 14.357 14.36l-.002.054zm88.898 73.828c-7.917 0-14.357-6.426-14.357-14.325 0-4.43 2.018-8.395 5.179-11.031.041-.033.082-.064.123-.1.31-.253.631-.493.962-.72.032-.022.063-.049.096-.068.324-.218.661-.418 1.002-.609.126-.068.253-.138.381-.204.247-.129.499-.249.753-.361.141-.063.281-.129.424-.188.317-.131.64-.248.968-.354a12.8 12.8 0 011.355-.372c.094-.021.187-.047.281-.066a14.6 14.6 0 011.211-.186c.106-.014.212-.021.318-.031.43-.039.863-.066 1.303-.066.438 0 .869.027 1.297.065.111.011.223.021.333.034.405.046.807.104 1.202.184.101.021.2.048.3.07a15.112 15.112 0 011.342.37c.343.111.683.232 1.015.372.119.049.234.104.351.155.274.123.545.252.81.393a14.013 14.013 0 011.38.814l.01.009c.369.248.725.518 1.069.799.018.015.035.027.053.044 3.184 2.636 5.215 6.611 5.215 11.057.001 7.889-6.449 14.315-14.376 14.315zm87.658-97.549c-.568.375-1.121.771-1.659 1.187-.092.07-.183.144-.274.216-.544.43-1.077.873-1.588 1.342-.028.025-.056.055-.084.08-.499.459-.979.938-1.444 1.436l-.188.195a28.668 28.668 0 00-1.553 1.839 28.644 28.644 0 00-1.201 1.653c-.043.064-.083.131-.125.194-.365.556-.71 1.123-1.036 1.704l-.112.193a28.063 28.063 0 00-1.081 2.193c-.275.62-.531 1.254-.762 1.896-.036.099-.067.199-.102.3a28.426 28.426 0 00-.6 1.953l-.04.138a28.544 28.544 0 00-.45 2.071c-.024.132-.049.263-.071.396a28.508 28.508 0 00-.269 2.076c-.012.127-.02.256-.029.383a28.584 28.584 0 00-.095 2.219c0 .599.025 1.188.062 1.775.009.141.021.281.032.422.039.502.09 1 .155 1.496.012.09.022.182.035.271.174 1.232.429 2.439.757 3.615.006.027.011.055.018.08l-55.648 32.088a28.292 28.292 0 00-3.313-2.891c-.102-.076-.207-.146-.309-.222-.25-.182-.5-.364-.755-.537a28.193 28.193 0 00-14.479-4.865 30.368 30.368 0 00-1.45-.038 28.177 28.177 0 00-15.937 4.918c-.152.104-.3.217-.451.321-.206.146-.414.29-.616.442a29.15 29.15 0 00-.981.771c-.015.015-.031.024-.046.036a28.176 28.176 0 00-2.256 2.063l-27.838-16.031-27.817-16.06c.025-.09.042-.184.066-.271.131-.485.251-.977.357-1.473.011-.053.026-.104.037-.157.119-.574.217-1.156.3-1.743.018-.129.033-.258.049-.389.061-.471.109-.942.146-1.422.011-.141.023-.278.032-.42.037-.59.062-1.184.062-1.783 0-.756-.039-1.504-.097-2.246-.009-.111-.016-.225-.026-.336a27.496 27.496 0 00-.273-2.112c-.02-.119-.042-.235-.063-.354a27.481 27.481 0 00-.457-2.104l-.026-.093c-.18-.682-.388-1.35-.616-2.008-.031-.09-.06-.182-.092-.271a28.69 28.69 0 00-.769-1.917l-.153-.338a28.492 28.492 0 00-.926-1.85c-.034-.063-.071-.123-.105-.185a28.865 28.865 0 00-1.04-1.711c-.042-.063-.082-.131-.125-.194a28.51 28.51 0 00-1.197-1.65c-.078-.102-.157-.201-.236-.303a29.468 29.468 0 00-1.313-1.533 13.5 13.5 0 00-.203-.213 28.766 28.766 0 00-1.413-1.403c-.038-.035-.074-.072-.112-.104a28.588 28.588 0 00-1.866-1.559 28.108 28.108 0 00-1.632-1.168 29.39 29.39 0 00-.294-.188 27.967 27.967 0 00-1.78-1.064l-.025-.016a27.688 27.688 0 00-1.877-.926c-.114-.052-.227-.104-.341-.154a26.152 26.152 0 00-1.886-.741c-.123-.044-.247-.084-.371-.126a26.004 26.004 0 00-2.016-.604l-.029-.009V313.41l.041-.014a27.633 27.633 0 001.983-.595c.136-.045.271-.09.406-.138.63-.225 1.25-.466 1.859-.729.125-.057.248-.112.372-.17a28.516 28.516 0 001.92-.949c.589-.322 1.161-.67 1.724-1.032l.326-.208a28.908 28.908 0 001.939-1.409 28.468 28.468 0 001.539-1.299l.146-.14c.472-.438.927-.892 1.368-1.357.077-.081.155-.16.231-.242.45-.486.879-.992 1.294-1.51.087-.107.172-.217.257-.327.411-.528.807-1.067 1.181-1.626.05-.074.096-.15.145-.227.356-.543.694-1.099 1.013-1.664l.124-.215c.328-.597.63-1.205.915-1.826.055-.118.109-.238.163-.358a28.64 28.64 0 00.762-1.897c.034-.096.064-.191.098-.289.225-.647.43-1.307.608-1.977.01-.038.022-.074.032-.113a28.37 28.37 0 00.455-2.092c.022-.121.045-.24.065-.363.116-.691.208-1.396.272-2.104.01-.113.017-.227.026-.34.059-.74.097-1.487.097-2.243 0-.601-.025-1.192-.062-1.783-.009-.147-.022-.297-.034-.444a28.23 28.23 0 00-.141-1.373c-.02-.15-.037-.305-.058-.455a28.179 28.179 0 00-.288-1.676c-.033-.158-.075-.315-.11-.477a25.16 25.16 0 00-.27-1.107c-.033-.125-.056-.252-.091-.375l27.813-16.059 27.845-16.034a28.406 28.406 0 003.304 2.883c.12.09.245.174.366.263.232.168.464.338.701.499a28.185 28.185 0 0013.048 4.758 28.172 28.172 0 005.738 0 28.186 28.186 0 0011.929-4.028c.062-.038.121-.079.183-.117a27.004 27.004 0 001.963-1.335l.027-.02a28.34 28.34 0 003.334-2.903l27.821 16.029 48.145 27.795v87.625a29.421 29.421 0 00-2.07.62l-.332.111c-.651.229-1.292.48-1.921.756l-.298.136a28.609 28.609 0 00-3.733 2.032c-.086.057-.174.111-.26.167zm29.902 24.965l-.029.308c-.047.41-.105.816-.188 1.216-.018.086-.041.172-.061.256-.07.324-.153.645-.246.957-.037.125-.074.25-.114.375-.123.377-.257.75-.409 1.111-.025.061-.055.119-.081.18a14.93 14.93 0 01-.483 1.002c-.035.065-.069.134-.105.197-2.446 4.42-7.163 7.422-12.572 7.422-5.415 0-10.136-3-12.587-7.416-.038-.068-.075-.141-.112-.209a14.271 14.271 0 01-.47-.972c-.031-.071-.066-.142-.096-.212-.149-.355-.28-.721-.401-1.09-.044-.135-.084-.271-.124-.407a14.176 14.176 0 01-.232-.896c-.023-.104-.052-.207-.073-.312a14.248 14.248 0 01-.217-1.533 14.279 14.279 0 01-.065-1.279c0-.494.025-.983.074-1.467.738-7.231 6.871-12.896 14.302-12.896 2.97 0 5.729.905 8.021 2.456 3.82 2.583 6.337 6.956 6.337 11.904-.003.443-.03.875-.069 1.305zm85.481 70.6c-7.917 0-14.358-6.44-14.358-14.359 0-4.43 2.025-8.393 5.199-11.021.022-.02.049-.039.073-.06.334-.272.681-.532 1.039-.775.011-.007.021-.016.03-.021a12.58 12.58 0 011.021-.617 14.054 14.054 0 011.118-.558c.174-.076.347-.152.521-.225.283-.114.569-.219.86-.315.17-.056.341-.104.513-.154a12.5 12.5 0 01.778-.2c.16-.037.319-.075.479-.106.351-.065.702-.12 1.062-.161.134-.016.269-.027.401-.041.396-.032.793-.059 1.196-.061l.065-.002.085.003c.394.003.784.023 1.173.058a19.174 19.174 0 011.203.161c.229.04.456.082.681.133.136.03.271.067.405.104.938.241 1.852.569 2.717.989.026.013.054.022.08.037.289.144.572.297.851.457.064.035.127.074.19.112.266.159.528.323.783.498.025.021.053.04.079.062.4.278.783.587 1.154.905.203.178.404.354.601.541.106.105.214.214.317.322.222.228.433.459.636.697.071.087.147.172.222.26.271.337.533.682.771 1.038.011.015.019.03.027.045.224.335.427.68.619 1.03.069.126.133.256.198.384.124.243.239.489.35.738.07.161.143.322.206.487a14.301 14.301 0 011.004 5.262c.009 7.91-6.432 14.353-14.349 14.353zm91.095-95.543c-.541.36-1.069.739-1.584 1.135l-.36.282c-.517.411-1.022.835-1.512 1.278-.063.059-.124.12-.188.179-.451.421-.89.856-1.313 1.306-.088.096-.179.187-.268.281-.438.478-.858.971-1.267 1.479-.098.121-.193.244-.29.369a29.618 29.618 0 00-1.151 1.59c-.063.094-.119.189-.183.283a28.829 28.829 0 00-.961 1.582c-.053.094-.107.185-.16.276a31.284 31.284 0 00-.889 1.776c-.065.141-.13.279-.191.423a26.334 26.334 0 00-.738 1.844c-.044.121-.082.244-.124.366-.21.607-.401 1.229-.569 1.854l-.063.211a29.034 29.034 0 00-.438 2.021c-.027.148-.055.298-.08.448-.111.671-.2 1.35-.263 2.036-.016.143-.022.287-.033.431-.054.705-.09 1.415-.092 2.134l-.002.057c0 .037.004.074.004.111.002.545.021 1.086.056 1.623.011.182.026.362.041.543.034.426.078.85.131 1.27.021.171.04.341.064.51.081.563.174 1.118.288 1.669.021.114.054.228.079.341.095.434.195.86.312 1.284.025.104.045.208.073.312l-56.822 32.774a28.822 28.822 0 00-2.558-2.932c-4.545-4.537-10.364-7.336-16.65-8.08-.036-.005-.072-.009-.107-.016a28.38 28.38 0 00-1.434-.128c-.081-.005-.162-.013-.242-.018a28.232 28.232 0 00-17.546 4.858c-.209.142-.413.291-.618.438-.146.105-.297.208-.44.316a28.749 28.749 0 00-3.311 2.886l-52.168-30.104c.01-.033.016-.065.023-.101.322-1.165.576-2.358.748-3.578.016-.108.025-.217.042-.325.061-.472.108-.947.146-1.426.014-.16.027-.318.037-.479.033-.545.055-1.094.057-1.646 0-.035.006-.07.006-.105 0-.02-.004-.037-.004-.057a28.484 28.484 0 00-.092-2.136c-.011-.144-.02-.285-.033-.429a27.361 27.361 0 00-.262-2.039c-.025-.147-.054-.295-.08-.441a30.007 30.007 0 00-.438-2.027l-.06-.203a27.79 27.79 0 00-.571-1.865c-.041-.118-.079-.239-.121-.356a30.882 30.882 0 00-.744-1.854c-.062-.137-.122-.271-.187-.406a26.487 26.487 0 00-.896-1.792c-.047-.086-.099-.169-.146-.254a32.114 32.114 0 00-.983-1.619c-.056-.085-.106-.171-.164-.255a28.143 28.143 0 00-1.169-1.612c-.089-.114-.178-.229-.27-.342a27.565 27.565 0 00-1.287-1.504c-.075-.083-.155-.163-.233-.245-.44-.469-.896-.923-1.368-1.359l-.143-.138a29.276 29.276 0 00-1.865-1.558 27.69 27.69 0 00-1.62-1.159 22.154 22.154 0 00-.306-.196 28.527 28.527 0 00-1.766-1.059c-.014-.006-.023-.014-.035-.021a27.571 27.571 0 00-1.881-.927c-.109-.05-.222-.104-.332-.148a28.058 28.058 0 00-1.896-.748c-.118-.041-.237-.08-.354-.119a26.266 26.266 0 00-2.033-.609l-.021-.007v-87.626l48.12-27.792 27.828-16.032a28.564 28.564 0 004.403 3.664c.271.185.553.361.832.537.093.058.183.12.274.177a28.193 28.193 0 0011.921 4.024 28.217 28.217 0 005.738 0 28.191 28.191 0 0013.059-4.763c.207-.141.408-.29.612-.436.151-.109.305-.214.454-.326a28.568 28.568 0 003.297-2.878l27.837 16.03 27.82 16.061c-.039.141-.066.285-.104.428-.074.285-.143.572-.209.86-.063.271-.128.541-.183.813-.099.49-.183.985-.255 1.483-.028.195-.051.394-.075.589-.05.4-.091.807-.124 1.213a28.307 28.307 0 00-.099 2.196c0 .036-.004.072-.004.108l.002.058c.002.718.038 1.425.092 2.127.011.146.02.291.033.435.063.685.149 1.359.262 2.029.023.15.055.305.082.457.124.676.266 1.348.437 2.008.021.078.046.153.066.231.166.616.354 1.226.561 1.823.045.128.085.258.133.385.223.619.469 1.227.73 1.824.065.148.134.297.202.443.274.596.563 1.183.878 1.752.058.104.12.207.179.312.295.521.606 1.034.936 1.535.066.104.133.211.202.313.357.535.739 1.057 1.136 1.563.103.133.205.265.311.396.4.498.813.984 1.246 1.455.099.104.197.205.295.311.41.433.833.854 1.271 1.26.075.068.146.143.222.211.479.438.979.854 1.486 1.255a26.12 26.12 0 001.952 1.421c.126.084.255.163.383.245.529.343 1.07.668 1.627.976.063.033.124.07.188.104.575.313 1.167.598 1.768.868.139.063.275.129.417.188.599.26 1.207.5 1.825.719.146.052.295.101.44.148a28.35 28.35 0 001.954.586c.017.004.032.012.049.016v64.214c-.013.003-.022.008-.037.011-.673.174-1.333.377-1.984.598a29.072 29.072 0 00-4.474 1.942c-.036.02-.07.042-.107.063-.574.315-1.134.654-1.685 1.01-.118.073-.235.148-.352.224zm15.639 37.967c-7.382 0-13.476-5.588-14.265-12.746a14.253 14.253 0 01-.089-1.576c0-7.918 6.438-14.36 14.354-14.36 7.917 0 14.358 6.442 14.358 14.36 0 7.897-6.441 14.322-14.358 14.322z"></path><path d="M261.02 110.528l44.325 19.154a6.98 6.98 0 002.772.576 7.003 7.003 0 002.783-13.428l-44.326-19.154a6.998 6.998 0 00-9.202 3.649 6.997 6.997 0 003.648 9.203zM419.335 288.023l-44.326-19.154a7.002 7.002 0 00-9.202 3.648 7.005 7.005 0 003.649 9.203l44.326 19.152a6.93 6.93 0 002.771.576 7.006 7.006 0 006.432-4.227 6.998 6.998 0 00-3.65-9.198zM222.844 292.811l-44.326-19.151a6.998 6.998 0 10-5.553 12.849l44.326 19.153a7 7 0 009.202-3.652 6.996 6.996 0 00-3.649-9.199z"></path></g><!----></svg>